DataType=double
version=3
OpenSimVersion=4.2
endheader
time	ground_force_r_vx	ground_force_r_vy	ground_force_r_vz	ground_force_r_px	ground_force_r_py	ground_force_r_pz	ground_force_l_vx	ground_force_l_vy	ground_force_l_vz	ground_force_l_px	ground_force_l_py	ground_force_l_pz	ground_torque_r_x	ground_torque_r_y	ground_torque_r_z	ground_torque_l_x	ground_torque_l_y	ground_torque_l_z
0.868	-16.52891034550898	4.162505225578329	0	0	0	0	0	0	0	0	0	0	0	0	-0.07157731810652471	0	0	0
0.8693369778585032	-33.3393773427845	8.116262230185802	0	0	0	0	0	0	0	0	0	0	0	0	-0.1439170315048481	0	0	0
0.8706739557170062	-60.22151191394299	14.33868236956201	0	0	0	0	0	0	0	0	0	0	0	0	-0.3811446489688248	0	0	0
0.8720109335755094	-104.0965718325442	24.53309550639227	0	0	0	0	0	0	0	0	0	0	0	0	-0.8604681090653223	0	0	0
0.8733479114340125	-174.3298319116079	41.17037155103043	0	0	0	0	0	0	0	0	0	0	0	0	-1.563832603011531	0	0	0
0.8746848892925156	-271.2107207393782	65.04400548744279	0	0	0	0	0	0	0	0	0	0	0	0	-2.31399287403112	0	0	0
0.8760218671510188	-393.213441804418	97.21392032050683	0	0	0	0	0	0	0	0	0	0	0	0	-2.908748830962602	0	0	0
0.8773588450095219	-598.4638478747961	155.7804968281317	0	0	0	0	0	0	0	0	0	0	0	0	-3.568839456080282	0	0	0
0.8786958228680251	-933.5336177223571	266.4597936251328	0	0	0	0	0	0	0	0	0	0	0	0	-3.632828021094354	0	0	0
0.8800328007265281	-1255.462780387841	419.0497167816355	0	0	0	0	0	0	0	0	0	0	0	0	0.1117779330547044	0	0	0
0.8813697785850313	-1438.121120862766	602.6257019946787	0	0	0	0	0	0	0	0	0	0	0	0	12.62307779713502	0	0	0
0.8827067564435345	-1614.403673056535	922.660072922421	0	0	0	0	0	0	0	0	0	0	0	0	51.08083699291053	0	0	0
0.8840437343020375	-1882.292201782982	1628.068692206677	0	0	0	0	0	0	0	0	0	0	0	0	154.8538455013444	0	0	0
0.8853807121605407	-1181.600465209844	2070.147168150579	0	0	0	0	0	0	0	0	0	0	0	0	231.3052106979013	0	0	0
0.8867176900190439	-390.2798210110093	1600.350871315193	0	0	0	0	0	0	0	0	0	0	0	0	153.6561940803205	0	0	0
0.8880546678775469	-34.96841787327924	1369.001365844878	0	0	0	0	0	0	0	0	0	0	0	0	123.6606843158393	0	0	0
0.8893916457360501	-49.4302102109644	1324.872237903228	0	0	0	0	0	0	0	0	0	0	0	0	130.463203491241	0	0	0
0.8907286235945532	-2.468464483624648	1294.327842918838	0	0	0	0	0	0	0	0	0	0	0	0	144.8832908264376	0	0	0
0.8920656014530564	-102.502281153682	1258.461687813893	0	0	0	0	0	0	0	0	0	0	0	0	158.0590778060848	0	0	0
0.8934025793115594	-71.28226853607106	1205.108473484654	0	0	0	0	0	0	0	0	0	0	0	0	169.5153875418359	0	0	0
0.8947395571700626	-135.606220309233	1146.711476586916	0	0	0	0	0	0	0	0	0	0	0	0	177.1846977236204	0	0	0
0.8960765350285658	-106.6810251879648	1094.823201658674	0	0	0	0	0	0	0	0	0	0	0	0	185.4130691876187	0	0	0
0.8974135128870688	-148.1519189774008	1123.868210935278	0	0	0	0	0	0	0	0	0	0	0	0	193.8937599004936	0	0	0
0.898750490745572	-122.7202585946717	1158.259100139719	0	0	0	0	0	0	0	0	0	0	0	0	203.4221799793405	0	0	0
0.9000874686040752	-128.3634325560971	1171.714498290359	0	0	0	0	0	0	0	0	0	0	0	0	208.9120414626164	0	0	0
0.9014244464625782	-111.6168857714587	1183.440956810772	0	0	0	0	0	0	0	0	0	0	0	0	214.5217424911224	0	0	0
0.9027614243210814	-107.3287128947776	1182.471873310211	0	0	0	0	0	0	0	0	0	0	0	0	217.6218348446653	0	0	0
0.9040984021795845	-94.51853298712244	1178.563386404044	0	0	0	0	0	0	0	0	0	0	0	0	220.2553988128651	0	0	0
0.9054353800380877	-87.49958555374128	1167.4438552805	0	0	0	0	0	0	0	0	0	0	0	0	221.2730659689768	0	0	0
0.9067723578965908	-78.95986561849341	1155.644311109275	0	0	0	0	0	0	0	0	0	0	0	0	221.9090467771331	0	0	0
0.9081093357550939	-76.48198855755489	1142.10815089567	0	0	0	0	0	0	0	0	0	0	0	0	221.7025484527949	0	0	0
0.9094463136135971	-77.80692559875691	1132.125800343192	0	0	0	0	0	0	0	0	0	0	0	0	221.4797860578005	0	0	0
0.9107832914721001	-88.03344768934335	1139.272259739702	0	0	0	0	0	0	0	0	0	0	0	0	222.1632712593113	0	0	0
0.9121202693306033	-95.40900441913877	1140.748752977024	0	0	0	0	0	0	0	0	0	0	0	0	221.7010712594623	0	0	0
0.9134572471891065	-105.9629534807119	1144.250696334939	0	0	0	0	0	0	0	0	0	0	0	0	221.4622084630339	0	0	0
0.9147942250476095	-117.6608818068061	1149.122420552478	0	0	0	0	0	0	0	0	0	0	0	0	221.3483517676658	0	0	0
0.9161312029061127	-129.7240058162255	1155.69457092318	0	0	0	0	0	0	0	0	0	0	0	0	221.4473970842153	0	0	0
0.9174681807646158	-142.9233836077198	1164.035686296259	0	0	0	0	0	0	0	0	0	0	0	0	221.7365836711964	0	0	0
0.918805158623119	-155.4047443899341	1173.656074217943	0	0	0	0	0	0	0	0	0	0	0	0	222.2019025985968	0	0	0
0.9201421364816221	-165.8967442391342	1183.927852917293	0	0	0	0	0	0	0	0	0	0	0	0	222.7943413222696	0	0	0
0.9214791143401252	-174.0140143943693	1195.147164429976	0	0	0	0	0	0	0	0	0	0	0	0	223.6128359108724	0	0	0
0.9228160921986284	-179.6104702849177	1207.768128270756	0	0	0	0	0	0	0	0	0	0	0	0	224.7773746320566	0	0	0
0.9241530700571314	-182.5110783172406	1222.408405277666	0	0	0	0	0	0	0	0	0	0	0	0	226.4407966786562	0	0	0
0.9254900479156346	-182.4189520264459	1240.074057216227	0	0	0	0	0	0	0	0	0	0	0	0	228.8373498205466	0	0	0
0.9268270257741378	-179.5305259166294	1261.974933223	0	0	0	0	0	0	0	0	0	0	0	0	232.2095099889114	0	0	0
0.9281640036326408	-174.615266994491	1287.943309397675	0	0	0	0	0	0	0	0	0	0	0	0	236.4979922971353	0	0	0
0.929500981491144	-167.6421248291279	1317.641928755512	0	0	0	0	0	0	0	0	0	0	0	0	241.6197618022372	0	0	0
0.9308379593496471	-158.2705693375203	1351.408485207549	0	0	0	0	0	0	0	0	0	0	0	0	247.5797926097241	0	0	0
